<svg xmlns="http://www.w3.org/2000/svg" viewBox="0 0 180 41.78824"><title>knowlita_logo</title><path d="M3.65573,19.15245,10.38625.58095H14.4529L6.61716,20.72055l8.18053,20.48675H10.79244l-7.13671-18.921v18.921H0V.58095H3.65573Z" style="fill:#fff"/><path d="M27.91393,18.68958q.11336,4.46694.11336,9.40147V41.20729H24.48964V.58095h3.59906l8.53,31.74679q-.11336-4.81763-.23144-9.28575-.12044-4.47048-.11808-9.28575V.58095H39.8116V41.20729H36.21254l-8.53-31.68775Q27.79585,14.22028,27.91393,18.68958Z" style="fill:#fff"/><path d="M57.31567,0a9.143,9.143,0,0,1,3.30622.52191,5.06344,5.06344,0,0,1,2.1207,1.48071,5.65989,5.65989,0,0,1,1.1005,2.2624,12.12663,12.12663,0,0,1,.32118,2.874V34.70585a12.11237,12.11237,0,0,1-.32118,2.874,5.40979,5.40979,0,0,1-1.1005,2.23406,5.189,5.189,0,0,1-2.1207,1.45237,10.83788,10.83788,0,0,1-6.6455,0A5.22984,5.22984,0,0,1,51.88874,39.814a5.29738,5.29738,0,0,1-1.1005-2.23406,11.87265,11.87265,0,0,1-.32118-2.874V7.13907a11.88635,11.88635,0,0,1,.32118-2.874,5.5387,5.5387,0,0,1,1.1005-2.2624A5.10179,5.10179,0,0,1,53.97638.52191,9.12236,9.12236,0,0,1,57.31567,0Zm0,38.5387a2.73249,2.73249,0,0,0,2.52217-1.07452,5.11523,5.11523,0,0,0,.67069-2.75833V7.13907a5.11217,5.11217,0,0,0-.67069-2.756,2.73249,2.73249,0,0,0-2.52217-1.07452,2.7465,2.7465,0,0,0-2.5269,1.07452,5.15494,5.15494,0,0,0-.666,2.756V34.70585a5.158,5.158,0,0,0,.666,2.75833A2.7465,2.7465,0,0,0,57.31567,38.5387Z" style="fill:#fff"/><path d="M87.37864,7.89242,83.142,41.20729H78.90527L73.73813.58095h3.71713l3.59906,33.603L85.461.58095h3.83049l4.41144,33.603L97.302.58095h3.71713L95.852,41.20729h-4.18Z" style="fill:#fff"/><path d="M111.20231.58095H114.858V37.724h6.38573v3.48334H111.20231Z" style="fill:#fff"/><path d="M131.10575.58095h3.65573V41.20729h-3.65573Z" style="fill:#fff"/><path d="M153.13461,41.20729h-3.65573V4.121h-4.879v-3.54h13.3524v3.54h-4.81763Z" style="fill:#fff"/><path d="M180,41.20729h-3.71241l-1.10522-9.28575h-5.97481l-1.10522,9.28575h-3.71241L169.95854.58095h4.52952ZM169.55235,28.55392h5.22383l-2.55051-22.402Z" style="fill:#fff"/></svg>